<svg id="Layer_1" data-name="Layer 1" xmlns="http://www.w3.org/2000/svg" viewBox="0 0 202.54 202.53"><defs><style>.cls-1,.cls-2,.cls-3{stroke:#fff;stroke-linecap:round;stroke-miterlimit:10;}.cls-1{stroke-width:4px;}.cls-2{stroke-width:2px;}</style></defs><title>duck_logo</title><path class="cls-1" d="M487,358.44c0,42.5-29.66,70.91-32.92,73.84-1.55,1.4-3.16,2.72-3.16,2.72s-1,.81-2,1.59c-26.89,21.07-61.2,21.12-61.2,21.12a99.23,99.23,0,0,1-53.13-15.4c-27.65-17.76-46.6-50-46.14-83.87.67-48.7,41.42-99.26,99.27-99.26A99.26,99.26,0,0,1,487,358.44Z" transform="translate(-286.46 -257.18)"/><path class="cls-1" d="M450.92,435c-1.86-3.13-4.6-7.74-7.92-13.3-30.63-51.31-39.21-63.87-34-72.42,3.21-5.31,11.74-9.09,18.36-9.94,7.24-.94,11.29,1.73,14.91-1.15,4.12-3.27,5.31-11.8,1.88-15.5-5.89-6.37-19.73,7.78-35.15,3.64-20.85-5.59-21-38.24-36.5-39.82-10-1-22.17,11.3-26.25,24.27-8.52,27.17,22.93,45,21.66,77.43-.53,13.48-6.84,32.22-33.26,54.1" transform="translate(-286.46 -257.18)"/><path class="cls-2" d="M378.45,312a7.12,7.12,0,0,1-1.75,4.6,2.34,2.34,0,0,1-.17.17l-.11.1a5.29,5.29,0,0,1-3.24,1.32,4.75,4.75,0,0,1-2.83-1,6.57,6.57,0,0,1-2.44-5.23c0-3,2.19-6.18,5.27-6.18C376.09,305.85,378.45,308.62,378.45,312Z" transform="translate(-286.46 -257.18)"/><path class="cls-3" d="M547.42,368.41" transform="translate(-286.46 -257.18)"/></svg>